<svg xmlns="http://www.w3.org/2000/svg" viewBox="0 0 80 80" fill="none">
  <defs>
    <linearGradient id="iconGrad" x1="0%" y1="0%" x2="100%" y2="100%">
      <stop offset="0%" style="stop-color:#4F46E5"/>
      <stop offset="50%" style="stop-color:#7C3AED"/>
      <stop offset="100%" style="stop-color:#EC4899"/>
    </linearGradient>
    <linearGradient id="iconNodeGrad" x1="0%" y1="0%" x2="100%" y2="100%">
      <stop offset="0%" style="stop-color:#6366F1"/>
      <stop offset="100%" style="stop-color:#A855F7"/>
    </linearGradient>
  </defs>
  <!-- Background circle -->
  <circle cx="40" cy="40" r="38" fill="url(#iconGrad)"/>
  <!-- Network nodes -->
  <circle cx="40" cy="40" r="10" fill="white" opacity="0.95"/>
  <circle cx="18" cy="22" r="6" fill="white" opacity="0.7"/>
  <circle cx="62" cy="22" r="6" fill="white" opacity="0.7"/>
  <circle cx="18" cy="58" r="6" fill="white" opacity="0.7"/>
  <circle cx="62" cy="58" r="6" fill="white" opacity="0.7"/>
  <circle cx="40" cy="12" r="4" fill="white" opacity="0.5"/>
  <circle cx="40" cy="68" r="4" fill="white" opacity="0.5"/>
  <!-- Connections -->
  <line x1="40" y1="40" x2="18" y2="22" stroke="white" stroke-width="1.5" opacity="0.4"/>
  <line x1="40" y1="40" x2="62" y2="22" stroke="white" stroke-width="1.5" opacity="0.4"/>
  <line x1="40" y1="40" x2="18" y2="58" stroke="white" stroke-width="1.5" opacity="0.4"/>
  <line x1="40" y1="40" x2="62" y2="58" stroke="white" stroke-width="1.5" opacity="0.4"/>
  <line x1="40" y1="40" x2="40" y2="12" stroke="white" stroke-width="1.2" opacity="0.3"/>
  <line x1="40" y1="40" x2="40" y2="68" stroke="white" stroke-width="1.2" opacity="0.3"/>
  <line x1="18" y1="22" x2="62" y2="22" stroke="white" stroke-width="1" opacity="0.25"/>
  <line x1="18" y1="58" x2="62" y2="58" stroke="white" stroke-width="1" opacity="0.25"/>
  <!-- Center dot -->
  <circle cx="40" cy="40" r="4" fill="url(#iconGrad)"/>
</svg>