<svg xmlns="http://www.w3.org/2000/svg" viewBox="0 0 400 100" fill="none">
  <defs>
    <linearGradient id="darkLogoGrad" x1="0%" y1="0%" x2="100%" y2="100%">
      <stop offset="0%" style="stop-color:#818CF8"/>
      <stop offset="50%" style="stop-color:#A78BFA"/>
      <stop offset="100%" style="stop-color:#F472B6"/>
    </linearGradient>
    <linearGradient id="darkNodeGrad" x1="0%" y1="0%" x2="100%" y2="100%">
      <stop offset="0%" style="stop-color:#818CF8"/>
      <stop offset="100%" style="stop-color:#C084FC"/>
    </linearGradient>
  </defs>
  <!-- Skill Graph Icon (light on dark) -->
  <g transform="translate(10, 10)">
    <circle cx="40" cy="40" r="12" fill="url(#darkLogoGrad)" opacity="0.9"/>
    <circle cx="12" cy="20" r="7" fill="url(#darkNodeGrad)" opacity="0.8"/>
    <circle cx="68" cy="20" r="7" fill="url(#darkNodeGrad)" opacity="0.8"/>
    <circle cx="12" cy="60" r="7" fill="url(#darkNodeGrad)" opacity="0.8"/>
    <circle cx="68" cy="60" r="7" fill="url(#darkNodeGrad)" opacity="0.8"/>
    <circle cx="40" cy="8" r="5" fill="#F472B6" opacity="0.7"/>
    <circle cx="40" cy="72" r="5" fill="#F472B6" opacity="0.7"/>
    <line x1="40" y1="40" x2="12" y2="20" stroke="#818CF8" stroke-width="1.5" opacity="0.5"/>
    <line x1="40" y1="40" x2="68" y2="20" stroke="#818CF8" stroke-width="1.5" opacity="0.5"/>
    <line x1="40" y1="40" x2="12" y2="60" stroke="#A78BFA" stroke-width="1.5" opacity="0.5"/>
    <line x1="40" y1="40" x2="68" y2="60" stroke="#A78BFA" stroke-width="1.5" opacity="0.5"/>
    <line x1="40" y1="40" x2="40" y2="8" stroke="#C084FC" stroke-width="1.5" opacity="0.4"/>
    <line x1="40" y1="40" x2="40" y2="72" stroke="#C084FC" stroke-width="1.5" opacity="0.4"/>
    <line x1="12" y1="20" x2="68" y2="20" stroke="#818CF8" stroke-width="1" opacity="0.3"/>
    <line x1="12" y1="60" x2="68" y2="60" stroke="#A78BFA" stroke-width="1" opacity="0.3"/>
    <circle cx="40" cy="40" r="5" fill="#1E1B4B"/>
    <circle cx="40" cy="40" r="3" fill="url(#darkLogoGrad)"/>
  </g>
  <text x="100" y="45" font-family="system-ui, -apple-system, 'Segoe UI', sans-serif" font-size="36" font-weight="800" fill="#F1F5F9" letter-spacing="-1">ISIN</text>
  <text x="100" y="70" font-family="system-ui, -apple-system, 'Segoe UI', sans-serif" font-size="12" font-weight="500" fill="#A78BFA" letter-spacing="2.5">SKILL INTELLIGENCE NETWORK</text>
  <text x="100" y="88" font-family="system-ui, -apple-system, 'Segoe UI', sans-serif" font-size="10" font-weight="400" fill="#64748B" letter-spacing="0.5">Verify Skills. Not Resumes.</text>
</svg>