<svg xmlns="http://www.w3.org/2000/svg" viewBox="0 0 192 192" fill="none">
  <defs>
    <linearGradient id="appGrad" x1="0%" y1="0%" x2="100%" y2="100%">
      <stop offset="0%" style="stop-color:#4F46E5"/>
      <stop offset="50%" style="stop-color:#7C3AED"/>
      <stop offset="100%" style="stop-color:#EC4899"/>
    </linearGradient>
  </defs>
  <rect width="192" height="192" rx="42" fill="url(#appGrad)"/>
  <!-- Network nodes -->
  <circle cx="96" cy="96" r="24" fill="white" opacity="0.95"/>
  <circle cx="40" cy="50" r="14" fill="white" opacity="0.65"/>
  <circle cx="152" cy="50" r="14" fill="white" opacity="0.65"/>
  <circle cx="40" cy="142" r="14" fill="white" opacity="0.65"/>
  <circle cx="152" cy="142" r="14" fill="white" opacity="0.65"/>
  <circle cx="96" cy="24" r="10" fill="white" opacity="0.45"/>
  <circle cx="96" cy="168" r="10" fill="white" opacity="0.45"/>
  <!-- Connections -->
  <line x1="96" y1="96" x2="40" y2="50" stroke="white" stroke-width="3" opacity="0.35"/>
  <line x1="96" y1="96" x2="152" y2="50" stroke="white" stroke-width="3" opacity="0.35"/>
  <line x1="96" y1="96" x2="40" y2="142" stroke="white" stroke-width="3" opacity="0.35"/>
  <line x1="96" y1="96" x2="152" y2="142" stroke="white" stroke-width="3" opacity="0.35"/>
  <line x1="96" y1="96" x2="96" y2="24" stroke="white" stroke-width="2.5" opacity="0.25"/>
  <line x1="96" y1="96" x2="96" y2="168" stroke="white" stroke-width="2.5" opacity="0.25"/>
  <line x1="40" y1="50" x2="152" y2="50" stroke="white" stroke-width="2" opacity="0.2"/>
  <line x1="40" y1="142" x2="152" y2="142" stroke="white" stroke-width="2" opacity="0.2"/>
  <!-- Center -->
  <circle cx="96" cy="96" r="10" fill="url(#appGrad)"/>
</svg>