<svg xmlns="http://www.w3.org/2000/svg" viewBox="0 0 512 512" fill="none">
  <defs>
    <linearGradient id="apLgGrad" x1="0%" y1="0%" x2="100%" y2="100%">
      <stop offset="0%" style="stop-color:#4F46E5"/>
      <stop offset="50%" style="stop-color:#7C3AED"/>
      <stop offset="100%" style="stop-color:#EC4899"/>
    </linearGradient>
  </defs>
  <rect width="512" height="512" rx="110" fill="url(#apLgGrad)"/>
  <circle cx="256" cy="256" r="64" fill="white" opacity="0.95"/>
  <circle cx="108" cy="134" r="36" fill="white" opacity="0.65"/>
  <circle cx="404" cy="134" r="36" fill="white" opacity="0.65"/>
  <circle cx="108" cy="378" r="36" fill="white" opacity="0.65"/>
  <circle cx="404" cy="378" r="36" fill="white" opacity="0.65"/>
  <circle cx="256" cy="64" r="26" fill="white" opacity="0.45"/>
  <circle cx="256" cy="448" r="26" fill="white" opacity="0.45"/>
  <line x1="256" y1="256" x2="108" y2="134" stroke="white" stroke-width="6" opacity="0.35"/>
  <line x1="256" y1="256" x2="404" y2="134" stroke="white" stroke-width="6" opacity="0.35"/>
  <line x1="256" y1="256" x2="108" y2="378" stroke="white" stroke-width="6" opacity="0.35"/>
  <line x1="256" y1="256" x2="404" y2="378" stroke="white" stroke-width="6" opacity="0.35"/>
  <line x1="256" y1="256" x2="256" y2="64" stroke="white" stroke-width="5" opacity="0.25"/>
  <line x1="256" y1="256" x2="256" y2="448" stroke="white" stroke-width="5" opacity="0.25"/>
  <line x1="108" y1="134" x2="404" y2="134" stroke="white" stroke-width="4" opacity="0.2"/>
  <line x1="108" y1="378" x2="404" y2="378" stroke="white" stroke-width="4" opacity="0.2"/>
  <circle cx="256" cy="256" r="26" fill="url(#apLgGrad)"/>
</svg>