<svg xmlns="http://www.w3.org/2000/svg" viewBox="0 0 48 48" fill="none">
  <defs>
    <linearGradient id="algoGrad" x1="0%" y1="0%" x2="100%" y2="100%">
      <stop offset="0%" style="stop-color:#10B981"/>
      <stop offset="100%" style="stop-color:#0EA5E9"/>
    </linearGradient>
  </defs>
  <rect width="48" height="48" rx="12" fill="#ECFDF5"/>
  <!-- Tree/algorithm structure -->
  <circle cx="24" cy="10" r="4" fill="url(#algoGrad)" opacity="0.3"/>
  <circle cx="24" cy="10" r="4" stroke="url(#algoGrad)" stroke-width="1.5" fill="none"/>
  <circle cx="14" cy="24" r="4" fill="url(#algoGrad)" opacity="0.3"/>
  <circle cx="14" cy="24" r="4" stroke="url(#algoGrad)" stroke-width="1.5" fill="none"/>
  <circle cx="34" cy="24" r="4" fill="url(#algoGrad)" opacity="0.3"/>
  <circle cx="34" cy="24" r="4" stroke="url(#algoGrad)" stroke-width="1.5" fill="none"/>
  <circle cx="8" cy="36" r="3" fill="url(#algoGrad)" opacity="0.3"/>
  <circle cx="8" cy="36" r="3" stroke="url(#algoGrad)" stroke-width="1.2" fill="none"/>
  <circle cx="20" cy="36" r="3" fill="url(#algoGrad)" opacity="0.3"/>
  <circle cx="20" cy="36" r="3" stroke="url(#algoGrad)" stroke-width="1.2" fill="none"/>
  <circle cx="28" cy="36" r="3" fill="url(#algoGrad)" opacity="0.3"/>
  <circle cx="28" cy="36" r="3" stroke="url(#algoGrad)" stroke-width="1.2" fill="none"/>
  <circle cx="40" cy="36" r="3" fill="url(#algoGrad)" opacity="0.3"/>
  <circle cx="40" cy="36" r="3" stroke="url(#algoGrad)" stroke-width="1.2" fill="none"/>
  <!-- Connections -->
  <line x1="24" y1="14" x2="14" y2="20" stroke="url(#algoGrad)" stroke-width="1.5"/>
  <line x1="24" y1="14" x2="34" y2="20" stroke="url(#algoGrad)" stroke-width="1.5"/>
  <line x1="14" y1="28" x2="8" y2="33" stroke="url(#algoGrad)" stroke-width="1.2"/>
  <line x1="14" y1="28" x2="20" y2="33" stroke="url(#algoGrad)" stroke-width="1.2"/>
  <line x1="34" y1="28" x2="28" y2="33" stroke="url(#algoGrad)" stroke-width="1.2"/>
  <line x1="34" y1="28" x2="40" y2="33" stroke="url(#algoGrad)" stroke-width="1.2"/>
  <text x="24" y="46" font-family="system-ui, sans-serif" font-size="5" font-weight="600" fill="#10B981" text-anchor="middle">ALGO</text>
</svg>