<svg xmlns="http://www.w3.org/2000/svg" viewBox="0 0 48 48" fill="none">
  <defs>
    <linearGradient id="debugGrad" x1="0%" y1="0%" x2="100%" y2="100%">
      <stop offset="0%" style="stop-color:#F59E0B"/>
      <stop offset="100%" style="stop-color:#EF4444"/>
    </linearGradient>
  </defs>
  <rect width="48" height="48" rx="12" fill="#FFF7ED"/>
  <!-- Bug body -->
  <ellipse cx="24" cy="24" rx="8" ry="10" fill="url(#debugGrad)" opacity="0.15"/>
  <ellipse cx="24" cy="24" rx="8" ry="10" stroke="url(#debugGrad)" stroke-width="1.8" fill="none"/>
  <!-- Bug head -->
  <circle cx="24" cy="13" r="4" fill="url(#debugGrad)" opacity="0.3"/>
  <circle cx="24" cy="13" r="4" stroke="url(#debugGrad)" stroke-width="1.5" fill="none"/>
  <!-- Antennae -->
  <path d="M22 10 L18 6" stroke="url(#debugGrad)" stroke-width="1.5" stroke-linecap="round"/>
  <path d="M26 10 L30 6" stroke="url(#debugGrad)" stroke-width="1.5" stroke-linecap="round"/>
  <circle cx="18" cy="6" r="1.5" fill="url(#debugGrad)"/>
  <circle cx="30" cy="6" r="1.5" fill="url(#debugGrad)"/>
  <!-- Legs -->
  <line x1="16" y1="20" x2="10" y2="17" stroke="url(#debugGrad)" stroke-width="1.5" stroke-linecap="round"/>
  <line x1="16" y1="24" x2="10" y2="24" stroke="url(#debugGrad)" stroke-width="1.5" stroke-linecap="round"/>
  <line x1="16" y1="28" x2="10" y2="31" stroke="url(#debugGrad)" stroke-width="1.5" stroke-linecap="round"/>
  <line x1="32" y1="20" x2="38" y2="17" stroke="url(#debugGrad)" stroke-width="1.5" stroke-linecap="round"/>
  <line x1="32" y1="24" x2="38" y2="24" stroke="url(#debugGrad)" stroke-width="1.5" stroke-linecap="round"/>
  <line x1="32" y1="28" x2="38" y2="31" stroke="url(#debugGrad)" stroke-width="1.5" stroke-linecap="round"/>
  <!-- Center line -->
  <line x1="24" y1="16" x2="24" y2="33" stroke="url(#debugGrad)" stroke-width="1" opacity="0.5"/>
  <text x="24" y="44" font-family="system-ui, sans-serif" font-size="5" font-weight="600" fill="#F59E0B" text-anchor="middle">DEBUG</text>
</svg>